<svg width="104" height="131" viewBox="0 0 104 131" fill="none" xmlns="http://www.w3.org/2000/svg">
<g clip-path="url(#clip0_118_14)">
<path fill-rule="evenodd" clip-rule="evenodd" d="M46.6625 26.6312L46.5459 23.5302C46.521 22.5672 46.1946 21.6373 45.6142 20.8753C45.0337 20.1134 44.2294 19.5591 43.3178 19.2929C29.4845 15.0318 22.2241 12.4871 19.8467 5.63397C19.2952 7.80153 19.198 10.0625 19.5613 12.2707C19.9247 14.4788 20.7405 16.5849 21.9561 18.4525L46.6625 26.6312Z" fill="#0083CB"/>
<path fill-rule="evenodd" clip-rule="evenodd" d="M57.3375 26.6313L57.4541 23.3763C57.4765 22.4501 57.7778 21.5531 58.3175 20.806C58.8571 20.059 59.6092 19.4979 60.4724 19.1982L99.991 4.92383L97.4272 13.7891L57.3375 26.6313Z" fill="#8CBF30"/>
<path fill-rule="evenodd" clip-rule="evenodd" d="M18.9727 61.2874C31.1627 65.6905 44.1802 65.7852 49.8091 78L48.0493 34.7627C48.0227 33.8129 47.7021 32.8957 47.1331 32.1414C46.5641 31.3871 45.7755 30.8341 44.8794 30.5609L0 16.2037L12.5164 54.6237C12.9969 56.1739 13.8326 57.5862 14.955 58.7446C16.0773 59.903 17.4543 60.7745 18.9727 61.2874Z" fill="#E30613"/>
<path fill-rule="evenodd" clip-rule="evenodd" d="M85.0273 61.2874C72.9072 65.6668 59.8198 65.7852 54.2375 78L55.9973 34.7627C56.0274 33.8138 56.3493 32.8983 56.9178 32.1447C57.4863 31.3912 58.2729 30.8373 59.1672 30.5609L104 16.2037L91.4603 54.6237C90.9821 56.1713 90.1499 57.582 89.0318 58.7402C87.9137 59.8984 86.5414 60.7713 85.0273 61.2874V61.2874Z" fill="#F8AB08"/>
<path fill-rule="evenodd" clip-rule="evenodd" d="M34.2277 13.9666C31.6988 9.71743 30.4868 5.53928 32.1882 1.515C24.3101 -2.2844 18.623 1.60968 22.9583 6.95961C25.5338 10.1672 28.9251 12.4279 34.2277 13.9666Z" fill="#006DA6"/>
</g>
<path d="M3.46 106H1.35V91.25H4.81L10.63 104.97L10.37 105.07V91.25H12.49V106H8.98L3.18 92.3L3.46 92.21V106ZM19.9977 106.2C18.9043 106.2 17.9377 105.963 17.0977 105.49C16.2643 105.017 15.611 104.367 15.1377 103.54C14.671 102.707 14.4377 101.753 14.4377 100.68C14.4377 99.6133 14.671 98.67 15.1377 97.85C15.611 97.0233 16.2643 96.38 17.0977 95.92C17.9377 95.4533 18.9043 95.22 19.9977 95.22C21.091 95.22 22.0543 95.4533 22.8877 95.92C23.7277 96.38 24.381 97.0233 24.8477 97.85C25.321 98.67 25.5577 99.6133 25.5577 100.68C25.5577 101.753 25.321 102.707 24.8477 103.54C24.381 104.367 23.7277 105.017 22.8877 105.49C22.0543 105.963 21.091 106.2 19.9977 106.2ZM19.9977 104.34C20.6643 104.34 21.251 104.19 21.7577 103.89C22.2643 103.59 22.661 103.167 22.9477 102.62C23.2343 102.067 23.3777 101.42 23.3777 100.68C23.3777 99.9467 23.2343 99.31 22.9477 98.77C22.661 98.23 22.2643 97.8133 21.7577 97.52C21.251 97.2267 20.6643 97.08 19.9977 97.08C19.3377 97.08 18.751 97.2267 18.2377 97.52C17.731 97.8133 17.3343 98.23 17.0477 98.77C16.761 99.31 16.6177 99.9467 16.6177 100.68C16.6177 101.42 16.761 102.067 17.0477 102.62C17.3343 103.167 17.731 103.59 18.2377 103.89C18.751 104.19 19.3377 104.34 19.9977 104.34ZM31.9373 106.18C31.584 106.18 31.2307 106.143 30.8773 106.07C30.5307 105.997 30.2107 105.863 29.9173 105.67C29.6307 105.47 29.4007 105.187 29.2273 104.82C29.054 104.453 28.9673 103.973 28.9673 103.38C28.9673 103.24 28.9673 103.093 28.9673 102.94C28.9673 102.787 28.9673 102.63 28.9673 102.47V97.18H26.4173V95.38H27.7573C28.044 95.38 28.2673 95.37 28.4273 95.35C28.594 95.3233 28.714 95.2667 28.7873 95.18C28.8673 95.0867 28.9173 94.94 28.9373 94.74C28.9573 94.54 28.9673 94.2667 28.9673 93.92V91.87H31.1373V95.38H34.3873V97.18H31.1373V101.89C31.1373 102.023 31.1373 102.157 31.1373 102.29C31.1373 102.423 31.1373 102.547 31.1373 102.66C31.1373 103.193 31.2007 103.613 31.3273 103.92C31.4607 104.227 31.7607 104.38 32.2273 104.38C32.4273 104.38 32.6173 104.363 32.7973 104.33C32.9773 104.297 33.114 104.26 33.2073 104.22V105.99C33.0873 106.037 32.9173 106.08 32.6973 106.12C32.4773 106.16 32.224 106.18 31.9373 106.18ZM36.5173 101.45V99.76H44.3373L44.0373 100.26C44.0373 100.22 44.0373 100.18 44.0373 100.14C44.0373 100.093 44.0373 100.053 44.0373 100.02C44.0373 99.48 43.9207 98.9833 43.6873 98.53C43.454 98.07 43.104 97.7033 42.6373 97.43C42.1773 97.15 41.6007 97.01 40.9073 97.01C40.214 97.01 39.604 97.16 39.0773 97.46C38.5573 97.7533 38.1507 98.1733 37.8573 98.72C37.5707 99.26 37.4273 99.91 37.4273 100.67C37.4273 101.443 37.5673 102.11 37.8473 102.67C38.1273 103.223 38.5307 103.65 39.0573 103.95C39.584 104.25 40.214 104.4 40.9473 104.4C41.4607 104.4 41.904 104.35 42.2773 104.25C42.6573 104.143 42.9673 104.003 43.2073 103.83C43.454 103.657 43.6407 103.47 43.7673 103.27C43.894 103.063 43.9673 102.86 43.9873 102.66H46.1473C46.1073 103.093 45.964 103.523 45.7173 103.95C45.4773 104.37 45.134 104.753 44.6873 105.1C44.2473 105.44 43.7073 105.713 43.0673 105.92C42.434 106.12 41.704 106.22 40.8773 106.22C39.7707 106.22 38.8007 105.987 37.9673 105.52C37.134 105.053 36.484 104.407 36.0173 103.58C35.5507 102.747 35.3173 101.793 35.3173 100.72C35.3173 99.6267 35.554 98.6667 36.0273 97.84C36.5007 97.0133 37.1573 96.37 37.9973 95.91C38.8373 95.4433 39.8007 95.21 40.8873 95.21C41.994 95.21 42.9507 95.4433 43.7573 95.91C44.5707 96.3767 45.1973 97.02 45.6373 97.84C46.0773 98.66 46.2973 99.6033 46.2973 100.67C46.2973 100.797 46.294 100.943 46.2873 101.11C46.2807 101.277 46.2707 101.39 46.2573 101.45H36.5173ZM52.5361 98.63L52.5861 96.96L58.4861 106H56.0661L51.2961 98.64L52.3461 98.78L50.2061 101.61L50.4161 100.22V106H48.2461V91.25H50.4161V99.21L49.9961 98.86L55.8061 91.25H58.1461L52.5361 98.63ZM67.7127 106V102.11C67.7127 101.937 67.7127 101.727 67.7127 101.48C67.7127 101.233 67.7127 100.983 67.7127 100.73C67.7127 100.47 67.7127 100.253 67.7127 100.08C67.7127 99.1267 67.516 98.4033 67.1227 97.91C66.736 97.4167 66.0993 97.17 65.2127 97.17C64.6193 97.17 64.106 97.2867 63.6727 97.52C63.2393 97.7533 62.9027 98.0733 62.6627 98.48C62.4293 98.8867 62.3127 99.35 62.3127 99.87L61.2927 99.45C61.2927 98.6433 61.486 97.9233 61.8727 97.29C62.266 96.65 62.8027 96.1433 63.4827 95.77C64.1693 95.3967 64.9527 95.21 65.8327 95.21C67.1127 95.21 68.106 95.5933 68.8127 96.36C69.526 97.12 69.8827 98.18 69.8827 99.54C69.8827 99.8867 69.8827 100.297 69.8827 100.77C69.8827 101.237 69.8827 101.747 69.8827 102.3V106H67.7127ZM60.1427 106V90.37H62.3127V106H60.1427ZM75.9031 106.21C75.1031 106.21 74.3998 106.083 73.7931 105.83C73.1931 105.577 72.7265 105.213 72.3931 104.74C72.0598 104.267 71.8931 103.697 71.8931 103.03C71.8931 102.317 72.0798 101.727 72.4531 101.26C72.8331 100.793 73.3531 100.433 74.0131 100.18C74.6798 99.92 75.4365 99.75 76.2831 99.67C77.5431 99.5433 78.4298 99.42 78.9431 99.3C79.4631 99.18 79.7231 98.9833 79.7231 98.71C79.7231 98.7033 79.7231 98.6967 79.7231 98.69C79.7231 98.15 79.4931 97.74 79.0331 97.46C78.5731 97.18 77.9165 97.04 77.0631 97.04C76.1631 97.04 75.4665 97.2 74.9731 97.52C74.4865 97.8333 74.2431 98.3333 74.2431 99.02H72.1131C72.1131 98.2067 72.3231 97.5167 72.7431 96.95C73.1698 96.3833 73.7565 95.9533 74.5031 95.66C75.2498 95.36 76.1065 95.21 77.0731 95.21C77.9598 95.21 78.7665 95.3467 79.4931 95.62C80.2265 95.8867 80.8098 96.2867 81.2431 96.82C81.6765 97.3533 81.8931 98.0167 81.8931 98.81C81.8931 98.95 81.8931 99.09 81.8931 99.23C81.8931 99.3633 81.8931 99.5 81.8931 99.64V103.88C81.8931 104.127 81.9031 104.367 81.9231 104.6C81.9431 104.827 81.9798 105.03 82.0331 105.21C82.0931 105.417 82.1631 105.587 82.2431 105.72C82.3298 105.853 82.3998 105.947 82.4531 106H80.2931C80.2531 105.96 80.1931 105.877 80.1131 105.75C80.0398 105.617 79.9731 105.463 79.9131 105.29C79.8531 105.123 79.8065 104.933 79.7731 104.72C79.7465 104.5 79.7331 104.263 79.7331 104.01L80.1331 104.29C79.9331 104.677 79.6298 105.013 79.2231 105.3C78.8231 105.587 78.3398 105.81 77.7731 105.97C77.2131 106.13 76.5898 106.21 75.9031 106.21ZM76.3531 104.41C76.9731 104.41 77.5365 104.313 78.0431 104.12C78.5565 103.92 78.9665 103.62 79.2731 103.22C79.5798 102.813 79.7331 102.303 79.7331 101.69V99.93L80.2431 100.6C79.8165 100.767 79.2931 100.903 78.6731 101.01C78.0598 101.11 77.4265 101.193 76.7731 101.26C75.8731 101.34 75.1965 101.497 74.7431 101.73C74.2898 101.957 74.0631 102.337 74.0631 102.87C74.0631 103.383 74.2498 103.77 74.6231 104.03C75.0031 104.283 75.5798 104.41 76.3531 104.41ZM88.3944 106.18C88.041 106.18 87.6877 106.143 87.3344 106.07C86.9877 105.997 86.6677 105.863 86.3744 105.67C86.0877 105.47 85.8577 105.187 85.6844 104.82C85.511 104.453 85.4244 103.973 85.4244 103.38C85.4244 103.24 85.4244 103.093 85.4244 102.94C85.4244 102.787 85.4244 102.63 85.4244 102.47V97.18H82.8744V95.38H84.2144C84.501 95.38 84.7244 95.37 84.8844 95.35C85.051 95.3233 85.171 95.2667 85.2444 95.18C85.3244 95.0867 85.3744 94.94 85.3944 94.74C85.4144 94.54 85.4244 94.2667 85.4244 93.92V91.87H87.5944V95.38H90.8444V97.18H87.5944V101.89C87.5944 102.023 87.5944 102.157 87.5944 102.29C87.5944 102.423 87.5944 102.547 87.5944 102.66C87.5944 103.193 87.6577 103.613 87.7844 103.92C87.9177 104.227 88.2177 104.38 88.6844 104.38C88.8844 104.38 89.0744 104.363 89.2544 104.33C89.4344 104.297 89.571 104.26 89.6644 104.22V105.99C89.5444 106.037 89.3744 106.08 89.1544 106.12C88.9344 106.16 88.681 106.18 88.3944 106.18ZM95.8844 106.21C95.0844 106.21 94.381 106.083 93.7744 105.83C93.1744 105.577 92.7077 105.213 92.3744 104.74C92.041 104.267 91.8744 103.697 91.8744 103.03C91.8744 102.317 92.061 101.727 92.4344 101.26C92.8144 100.793 93.3344 100.433 93.9944 100.18C94.661 99.92 95.4177 99.75 96.2644 99.67C97.5244 99.5433 98.411 99.42 98.9244 99.3C99.4444 99.18 99.7044 98.9833 99.7044 98.71C99.7044 98.7033 99.7044 98.6967 99.7044 98.69C99.7044 98.15 99.4744 97.74 99.0144 97.46C98.5544 97.18 97.8977 97.04 97.0444 97.04C96.1444 97.04 95.4477 97.2 94.9544 97.52C94.4677 97.8333 94.2244 98.3333 94.2244 99.02H92.0944C92.0944 98.2067 92.3044 97.5167 92.7244 96.95C93.151 96.3833 93.7377 95.9533 94.4844 95.66C95.231 95.36 96.0877 95.21 97.0544 95.21C97.941 95.21 98.7477 95.3467 99.4744 95.62C100.208 95.8867 100.791 96.2867 101.224 96.82C101.658 97.3533 101.874 98.0167 101.874 98.81C101.874 98.95 101.874 99.09 101.874 99.23C101.874 99.3633 101.874 99.5 101.874 99.64V103.88C101.874 104.127 101.884 104.367 101.904 104.6C101.924 104.827 101.961 105.03 102.014 105.21C102.074 105.417 102.144 105.587 102.224 105.72C102.311 105.853 102.381 105.947 102.434 106H100.274C100.234 105.96 100.174 105.877 100.094 105.75C100.021 105.617 99.9544 105.463 99.8944 105.29C99.8344 105.123 99.7877 104.933 99.7544 104.72C99.7277 104.5 99.7144 104.263 99.7144 104.01L100.114 104.29C99.9144 104.677 99.611 105.013 99.2044 105.3C98.8044 105.587 98.321 105.81 97.7544 105.97C97.1944 106.13 96.571 106.21 95.8844 106.21ZM96.3344 104.41C96.9544 104.41 97.5177 104.313 98.0244 104.12C98.5377 103.92 98.9477 103.62 99.2544 103.22C99.561 102.813 99.7144 102.303 99.7144 101.69V99.93L100.224 100.6C99.7977 100.767 99.2744 100.903 98.6544 101.01C98.041 101.11 97.4077 101.193 96.7544 101.26C95.8544 101.34 95.1777 101.497 94.7244 101.73C94.271 101.957 94.0444 102.337 94.0444 102.87C94.0444 103.383 94.231 103.77 94.6044 104.03C94.9844 104.283 95.561 104.41 96.3344 104.41Z" fill="#060606"/>
<path d="M28.56 127L31.712 115.176H34.44L37.56 127H35.776L33.064 116.272H33.08L30.352 127H28.56ZM30.384 124V122.56H35.76V124H30.384ZM42.3516 127.168C41.653 127.168 41.0103 127 40.4236 126.664C39.837 126.323 39.3676 125.821 39.0156 125.16C38.6636 124.499 38.4876 123.691 38.4876 122.736C38.4876 121.803 38.6663 121.011 39.0236 120.36C39.381 119.709 39.853 119.216 40.4396 118.88C41.0263 118.539 41.6636 118.368 42.3516 118.368C43.013 118.368 43.6263 118.528 44.1916 118.848C44.7623 119.168 45.221 119.613 45.5676 120.184C45.9143 120.749 46.0876 121.403 46.0876 122.144C46.0876 122.165 46.0876 122.187 46.0876 122.208C46.0876 122.224 46.0876 122.24 46.0876 122.256L45.0796 122.288C45.0796 122.272 45.0796 122.256 45.0796 122.24C45.0796 122.219 45.0796 122.2 45.0796 122.184C45.0796 121.741 44.9676 121.349 44.7436 121.008C44.5196 120.661 44.2236 120.389 43.8556 120.192C43.493 119.989 43.1063 119.888 42.6956 119.888C42.0076 119.888 41.4316 120.12 40.9676 120.584C40.5036 121.043 40.2716 121.76 40.2716 122.736C40.2716 123.707 40.5036 124.427 40.9676 124.896C41.437 125.36 42.013 125.592 42.6956 125.592C43.1223 125.592 43.517 125.491 43.8796 125.288C44.2423 125.08 44.533 124.797 44.7516 124.44C44.9703 124.083 45.0796 123.675 45.0796 123.216L46.0876 123.256C46.0876 123.992 45.9196 124.656 45.5836 125.248C45.253 125.84 44.805 126.309 44.2396 126.656C43.6796 126.997 43.0503 127.168 42.3516 127.168ZM45.0796 127V114.496H46.8236V127H45.0796ZM53.9864 127V123.4C53.9864 123.075 53.9864 122.795 53.9864 122.56C53.9864 122.32 53.9864 122.117 53.9864 121.952C53.9864 121.744 53.9704 121.523 53.9384 121.288C53.9117 121.053 53.8477 120.835 53.7464 120.632C53.6504 120.424 53.4984 120.256 53.2904 120.128C53.0824 120 52.797 119.936 52.4344 119.936C52.0717 119.936 51.765 120.008 51.5144 120.152C51.2637 120.296 51.061 120.488 50.9064 120.728C50.7517 120.963 50.6397 121.227 50.5704 121.52C50.501 121.808 50.4664 122.099 50.4664 122.392L49.7304 121.992C49.7304 121.325 49.861 120.72 50.1224 120.176C50.389 119.627 50.7624 119.189 51.2424 118.864C51.7277 118.533 52.2984 118.368 52.9544 118.368C53.621 118.368 54.1544 118.507 54.5544 118.784C54.9597 119.056 55.253 119.429 55.4344 119.904C55.6157 120.373 55.7064 120.907 55.7064 121.504C55.7064 121.723 55.7064 122.008 55.7064 122.36C55.7064 122.712 55.7064 123.12 55.7064 123.584V127H53.9864ZM48.7304 127V118.504H50.4664V127H48.7304ZM59.2184 127V123.408C59.2184 123.056 59.2184 122.763 59.2184 122.528C59.2184 122.288 59.2184 122.088 59.2184 121.928C59.2184 121.709 59.205 121.485 59.1784 121.256C59.1517 121.021 59.0877 120.805 58.9864 120.608C58.885 120.411 58.7277 120.251 58.5144 120.128C58.3064 120 58.0157 119.936 57.6424 119.936C57.2744 119.936 56.965 120.008 56.7144 120.152C56.469 120.291 56.2717 120.477 56.1224 120.712C55.973 120.941 55.8664 121.195 55.8024 121.472C55.7384 121.749 55.7064 122.024 55.7064 122.296L54.9704 121.912C54.9704 121.272 55.0984 120.683 55.3544 120.144C55.6157 119.605 55.9837 119.176 56.4584 118.856C56.9384 118.531 57.5064 118.368 58.1624 118.368C58.8024 118.368 59.3277 118.496 59.7384 118.752C60.149 119.008 60.453 119.363 60.6504 119.816C60.8477 120.269 60.9464 120.795 60.9464 121.392C60.9464 121.621 60.9464 121.909 60.9464 122.256C60.9464 122.603 60.9464 123.005 60.9464 123.464V127H59.2184ZM62.8563 127V118.504H64.5683V127H62.8563ZM63.7203 116.744C63.4216 116.744 63.1629 116.664 62.9443 116.504C62.7309 116.339 62.6243 116.112 62.6243 115.824C62.6243 115.541 62.7309 115.32 62.9443 115.16C63.1629 114.995 63.4216 114.912 63.7203 114.912C64.0136 114.912 64.2669 114.995 64.4803 115.16C64.6989 115.32 64.8083 115.541 64.8083 115.824C64.8083 116.112 64.6989 116.339 64.4803 116.504C64.2669 116.664 64.0136 116.744 63.7203 116.744ZM72.6071 127V123.08C72.6071 122.851 72.6071 122.656 72.6071 122.496C72.6071 122.336 72.6071 122.187 72.6071 122.048C72.6071 121.632 72.5431 121.267 72.4151 120.952C72.2871 120.632 72.0765 120.384 71.7831 120.208C71.4898 120.027 71.0978 119.936 70.6071 119.936C70.1751 119.936 69.7831 120.043 69.4311 120.256C69.0845 120.469 68.8071 120.76 68.5991 121.128C68.3965 121.491 68.2951 121.904 68.2951 122.368L67.5511 122C67.5511 121.312 67.7138 120.696 68.0391 120.152C68.3645 119.603 68.7991 119.168 69.3431 118.848C69.8925 118.528 70.4925 118.368 71.1431 118.368C71.8151 118.368 72.3885 118.499 72.8631 118.76C73.3431 119.016 73.7085 119.384 73.9591 119.864C74.2151 120.339 74.3431 120.907 74.3431 121.568C74.3431 121.813 74.3431 122.085 74.3431 122.384C74.3431 122.683 74.3431 122.971 74.3431 123.248V127H72.6071ZM66.5591 127V118.504H68.2951V127H66.5591Z" fill="#060606"/>
<defs>
<clipPath id="clip0_118_14">
<rect width="104" height="78" fill="white"/>
</clipPath>
</defs>
</svg>
