<svg width="174" height="42" viewBox="0 0 174 42" fill="none" xmlns="http://www.w3.org/2000/svg">
<g clip-path="url(#clip0_116_10)">
<path fill-rule="evenodd" clip-rule="evenodd" d="M25.126 14.3399L25.0632 12.6701C25.0498 12.1516 24.874 11.6508 24.5615 11.2406C24.2489 10.8303 23.8158 10.5319 23.325 10.3885C15.8763 8.09409 11.9668 6.72383 10.6867 3.03369C10.3897 4.20084 10.3374 5.41831 10.533 6.60731C10.7287 7.7963 11.168 8.93032 11.8225 9.93596L25.126 14.3399Z" fill="#0083CB"/>
<path fill-rule="evenodd" clip-rule="evenodd" d="M30.874 14.3399L30.9368 12.5873C30.9488 12.0885 31.1111 11.6055 31.4017 11.2033C31.6923 10.801 32.0972 10.4989 32.5621 10.3375L53.8413 2.65131L52.4608 7.4249L30.874 14.3399Z" fill="#8CBF30"/>
<path fill-rule="evenodd" clip-rule="evenodd" d="M10.216 33.0009C16.7799 35.3718 23.7893 35.4228 26.8203 42L25.8727 18.7184C25.8584 18.2069 25.6858 17.713 25.3794 17.3069C25.073 16.9008 24.6483 16.603 24.1658 16.4558L0 8.72504L6.73958 29.4127C6.99831 30.2475 7.44833 31.0079 8.05267 31.6317C8.65702 32.2555 9.39844 32.7247 10.216 33.0009Z" fill="#E30613"/>
<path fill-rule="evenodd" clip-rule="evenodd" d="M45.7839 33.0009C39.2577 35.359 32.2107 35.4228 29.2048 42L30.1524 18.7184C30.1686 18.2074 30.3419 17.7145 30.648 17.3087C30.9542 16.9029 31.3777 16.6047 31.8592 16.4558L56 8.72504L49.2479 29.4127C48.9904 30.2461 48.5423 31.0057 47.9402 31.6293C47.3381 32.253 46.5992 32.723 45.7839 33.0009V33.0009Z" fill="#F8AB08"/>
<path fill-rule="evenodd" clip-rule="evenodd" d="M18.4303 7.52047C17.0686 5.23246 16.416 2.98269 17.3322 0.815767C13.0901 -1.23006 10.0278 0.866753 12.3622 3.74748C13.749 5.47464 15.5751 6.69195 18.4303 7.52047Z" fill="#006DA6"/>
</g>
<path d="M73.46 26.5H71.35V11.75H74.81L80.63 25.47L80.37 25.57V11.75H82.49V26.5H78.98L73.18 12.8L73.46 12.71V26.5ZM89.9977 26.7C88.9043 26.7 87.9377 26.4633 87.0977 25.99C86.2643 25.5167 85.611 24.8667 85.1377 24.04C84.671 23.2067 84.4377 22.2533 84.4377 21.18C84.4377 20.1133 84.671 19.17 85.1377 18.35C85.611 17.5233 86.2643 16.88 87.0977 16.42C87.9377 15.9533 88.9043 15.72 89.9977 15.72C91.091 15.72 92.0543 15.9533 92.8877 16.42C93.7277 16.88 94.381 17.5233 94.8477 18.35C95.321 19.17 95.5577 20.1133 95.5577 21.18C95.5577 22.2533 95.321 23.2067 94.8477 24.04C94.381 24.8667 93.7277 25.5167 92.8877 25.99C92.0543 26.4633 91.091 26.7 89.9977 26.7ZM89.9977 24.84C90.6643 24.84 91.251 24.69 91.7577 24.39C92.2643 24.09 92.661 23.6667 92.9477 23.12C93.2343 22.5667 93.3777 21.92 93.3777 21.18C93.3777 20.4467 93.2343 19.81 92.9477 19.27C92.661 18.73 92.2643 18.3133 91.7577 18.02C91.251 17.7267 90.6643 17.58 89.9977 17.58C89.3377 17.58 88.751 17.7267 88.2377 18.02C87.731 18.3133 87.3343 18.73 87.0477 19.27C86.761 19.81 86.6177 20.4467 86.6177 21.18C86.6177 21.92 86.761 22.5667 87.0477 23.12C87.3343 23.6667 87.731 24.09 88.2377 24.39C88.751 24.69 89.3377 24.84 89.9977 24.84ZM101.937 26.68C101.584 26.68 101.231 26.6433 100.877 26.57C100.531 26.4967 100.211 26.3633 99.9173 26.17C99.6307 25.97 99.4007 25.6867 99.2273 25.32C99.054 24.9533 98.9673 24.4733 98.9673 23.88C98.9673 23.74 98.9673 23.5933 98.9673 23.44C98.9673 23.2867 98.9673 23.13 98.9673 22.97V17.68H96.4173V15.88H97.7573C98.044 15.88 98.2673 15.87 98.4273 15.85C98.594 15.8233 98.714 15.7667 98.7873 15.68C98.8673 15.5867 98.9173 15.44 98.9373 15.24C98.9573 15.04 98.9673 14.7667 98.9673 14.42V12.37H101.137V15.88H104.387V17.68H101.137V22.39C101.137 22.5233 101.137 22.6567 101.137 22.79C101.137 22.9233 101.137 23.0467 101.137 23.16C101.137 23.6933 101.201 24.1133 101.327 24.42C101.461 24.7267 101.761 24.88 102.227 24.88C102.427 24.88 102.617 24.8633 102.797 24.83C102.977 24.7967 103.114 24.76 103.207 24.72V26.49C103.087 26.5367 102.917 26.58 102.697 26.62C102.477 26.66 102.224 26.68 101.937 26.68ZM106.517 21.95V20.26H114.337L114.037 20.76C114.037 20.72 114.037 20.68 114.037 20.64C114.037 20.5933 114.037 20.5533 114.037 20.52C114.037 19.98 113.921 19.4833 113.687 19.03C113.454 18.57 113.104 18.2033 112.637 17.93C112.177 17.65 111.601 17.51 110.907 17.51C110.214 17.51 109.604 17.66 109.077 17.96C108.557 18.2533 108.151 18.6733 107.857 19.22C107.571 19.76 107.427 20.41 107.427 21.17C107.427 21.9433 107.567 22.61 107.847 23.17C108.127 23.7233 108.531 24.15 109.057 24.45C109.584 24.75 110.214 24.9 110.947 24.9C111.461 24.9 111.904 24.85 112.277 24.75C112.657 24.6433 112.967 24.5033 113.207 24.33C113.454 24.1567 113.641 23.97 113.767 23.77C113.894 23.5633 113.967 23.36 113.987 23.16H116.147C116.107 23.5933 115.964 24.0233 115.717 24.45C115.477 24.87 115.134 25.2533 114.687 25.6C114.247 25.94 113.707 26.2133 113.067 26.42C112.434 26.62 111.704 26.72 110.877 26.72C109.771 26.72 108.801 26.4867 107.967 26.02C107.134 25.5533 106.484 24.9067 106.017 24.08C105.551 23.2467 105.317 22.2933 105.317 21.22C105.317 20.1267 105.554 19.1667 106.027 18.34C106.501 17.5133 107.157 16.87 107.997 16.41C108.837 15.9433 109.801 15.71 110.887 15.71C111.994 15.71 112.951 15.9433 113.757 16.41C114.571 16.8767 115.197 17.52 115.637 18.34C116.077 19.16 116.297 20.1033 116.297 21.17C116.297 21.2967 116.294 21.4433 116.287 21.61C116.281 21.7767 116.271 21.89 116.257 21.95H106.517ZM122.536 19.13L122.586 17.46L128.486 26.5H126.066L121.296 19.14L122.346 19.28L120.206 22.11L120.416 20.72V26.5H118.246V11.75H120.416V19.71L119.996 19.36L125.806 11.75H128.146L122.536 19.13ZM137.713 26.5V22.61C137.713 22.4367 137.713 22.2267 137.713 21.98C137.713 21.7333 137.713 21.4833 137.713 21.23C137.713 20.97 137.713 20.7533 137.713 20.58C137.713 19.6267 137.516 18.9033 137.123 18.41C136.736 17.9167 136.099 17.67 135.213 17.67C134.619 17.67 134.106 17.7867 133.673 18.02C133.239 18.2533 132.903 18.5733 132.663 18.98C132.429 19.3867 132.313 19.85 132.313 20.37L131.293 19.95C131.293 19.1433 131.486 18.4233 131.873 17.79C132.266 17.15 132.803 16.6433 133.483 16.27C134.169 15.8967 134.953 15.71 135.833 15.71C137.113 15.71 138.106 16.0933 138.813 16.86C139.526 17.62 139.883 18.68 139.883 20.04C139.883 20.3867 139.883 20.7967 139.883 21.27C139.883 21.7367 139.883 22.2467 139.883 22.8V26.5H137.713ZM130.143 26.5V10.87H132.313V26.5H130.143ZM145.903 26.71C145.103 26.71 144.4 26.5833 143.793 26.33C143.193 26.0767 142.726 25.7133 142.393 25.24C142.06 24.7667 141.893 24.1967 141.893 23.53C141.893 22.8167 142.08 22.2267 142.453 21.76C142.833 21.2933 143.353 20.9333 144.013 20.68C144.68 20.42 145.436 20.25 146.283 20.17C147.543 20.0433 148.43 19.92 148.943 19.8C149.463 19.68 149.723 19.4833 149.723 19.21C149.723 19.2033 149.723 19.1967 149.723 19.19C149.723 18.65 149.493 18.24 149.033 17.96C148.573 17.68 147.916 17.54 147.063 17.54C146.163 17.54 145.466 17.7 144.973 18.02C144.486 18.3333 144.243 18.8333 144.243 19.52H142.113C142.113 18.7067 142.323 18.0167 142.743 17.45C143.17 16.8833 143.756 16.4533 144.503 16.16C145.25 15.86 146.106 15.71 147.073 15.71C147.96 15.71 148.766 15.8467 149.493 16.12C150.226 16.3867 150.81 16.7867 151.243 17.32C151.676 17.8533 151.893 18.5167 151.893 19.31C151.893 19.45 151.893 19.59 151.893 19.73C151.893 19.8633 151.893 20 151.893 20.14V24.38C151.893 24.6267 151.903 24.8667 151.923 25.1C151.943 25.3267 151.98 25.53 152.033 25.71C152.093 25.9167 152.163 26.0867 152.243 26.22C152.33 26.3533 152.4 26.4467 152.453 26.5H150.293C150.253 26.46 150.193 26.3767 150.113 26.25C150.04 26.1167 149.973 25.9633 149.913 25.79C149.853 25.6233 149.806 25.4333 149.773 25.22C149.746 25 149.733 24.7633 149.733 24.51L150.133 24.79C149.933 25.1767 149.63 25.5133 149.223 25.8C148.823 26.0867 148.34 26.31 147.773 26.47C147.213 26.63 146.59 26.71 145.903 26.71ZM146.353 24.91C146.973 24.91 147.536 24.8133 148.043 24.62C148.556 24.42 148.966 24.12 149.273 23.72C149.58 23.3133 149.733 22.8033 149.733 22.19V20.43L150.243 21.1C149.816 21.2667 149.293 21.4033 148.673 21.51C148.06 21.61 147.426 21.6933 146.773 21.76C145.873 21.84 145.196 21.9967 144.743 22.23C144.29 22.4567 144.063 22.8367 144.063 23.37C144.063 23.8833 144.25 24.27 144.623 24.53C145.003 24.7833 145.58 24.91 146.353 24.91ZM158.394 26.68C158.041 26.68 157.688 26.6433 157.334 26.57C156.988 26.4967 156.668 26.3633 156.374 26.17C156.088 25.97 155.858 25.6867 155.684 25.32C155.511 24.9533 155.424 24.4733 155.424 23.88C155.424 23.74 155.424 23.5933 155.424 23.44C155.424 23.2867 155.424 23.13 155.424 22.97V17.68H152.874V15.88H154.214C154.501 15.88 154.724 15.87 154.884 15.85C155.051 15.8233 155.171 15.7667 155.244 15.68C155.324 15.5867 155.374 15.44 155.394 15.24C155.414 15.04 155.424 14.7667 155.424 14.42V12.37H157.594V15.88H160.844V17.68H157.594V22.39C157.594 22.5233 157.594 22.6567 157.594 22.79C157.594 22.9233 157.594 23.0467 157.594 23.16C157.594 23.6933 157.658 24.1133 157.784 24.42C157.918 24.7267 158.218 24.88 158.684 24.88C158.884 24.88 159.074 24.8633 159.254 24.83C159.434 24.7967 159.571 24.76 159.664 24.72V26.49C159.544 26.5367 159.374 26.58 159.154 26.62C158.934 26.66 158.681 26.68 158.394 26.68ZM165.884 26.71C165.084 26.71 164.381 26.5833 163.774 26.33C163.174 26.0767 162.708 25.7133 162.374 25.24C162.041 24.7667 161.874 24.1967 161.874 23.53C161.874 22.8167 162.061 22.2267 162.434 21.76C162.814 21.2933 163.334 20.9333 163.994 20.68C164.661 20.42 165.418 20.25 166.264 20.17C167.524 20.0433 168.411 19.92 168.924 19.8C169.444 19.68 169.704 19.4833 169.704 19.21C169.704 19.2033 169.704 19.1967 169.704 19.19C169.704 18.65 169.474 18.24 169.014 17.96C168.554 17.68 167.898 17.54 167.044 17.54C166.144 17.54 165.448 17.7 164.954 18.02C164.468 18.3333 164.224 18.8333 164.224 19.52H162.094C162.094 18.7067 162.304 18.0167 162.724 17.45C163.151 16.8833 163.738 16.4533 164.484 16.16C165.231 15.86 166.088 15.71 167.054 15.71C167.941 15.71 168.748 15.8467 169.474 16.12C170.208 16.3867 170.791 16.7867 171.224 17.32C171.658 17.8533 171.874 18.5167 171.874 19.31C171.874 19.45 171.874 19.59 171.874 19.73C171.874 19.8633 171.874 20 171.874 20.14V24.38C171.874 24.6267 171.884 24.8667 171.904 25.1C171.924 25.3267 171.961 25.53 172.014 25.71C172.074 25.9167 172.144 26.0867 172.224 26.22C172.311 26.3533 172.381 26.4467 172.434 26.5H170.274C170.234 26.46 170.174 26.3767 170.094 26.25C170.021 26.1167 169.954 25.9633 169.894 25.79C169.834 25.6233 169.788 25.4333 169.754 25.22C169.728 25 169.714 24.7633 169.714 24.51L170.114 24.79C169.914 25.1767 169.611 25.5133 169.204 25.8C168.804 26.0867 168.321 26.31 167.754 26.47C167.194 26.63 166.571 26.71 165.884 26.71ZM166.334 24.91C166.954 24.91 167.518 24.8133 168.024 24.62C168.538 24.42 168.948 24.12 169.254 23.72C169.561 23.3133 169.714 22.8033 169.714 22.19V20.43L170.224 21.1C169.798 21.2667 169.274 21.4033 168.654 21.51C168.041 21.61 167.408 21.6933 166.754 21.76C165.854 21.84 165.178 21.9967 164.724 22.23C164.271 22.4567 164.044 22.8367 164.044 23.37C164.044 23.8833 164.231 24.27 164.604 24.53C164.984 24.7833 165.561 24.91 166.334 24.91Z" fill="#060606"/>
<defs>
<clipPath id="clip0_116_10">
<rect width="56" height="42" fill="white"/>
</clipPath>
</defs>
</svg>
